<svg xmlns="http://www.w3.org/2000/svg" xmlns:xlink="http://www.w3.org/1999/xlink" version="1.1" x="0px" y="0px" viewBox="0 0 32 40" style="enable-background:new 0 0 32 32;" xml:space="preserve"><title>shoppingcart</title><ellipse cx="10.9" cy="27.1" rx="2.3" ry="2.4"/><ellipse cx="25.4" cy="27.1" rx="2.3" ry="2.4"/><path d="M28.5,22.4H9.3c-0.7,0-1.3-0.4-1.7-1c-0.4-0.7-0.3-1.5,0.1-2.1l2.8-4.3c0.3-0.5,0.9-0.6,1.4-0.3s0.6,0.9,0.3,1.4l0,0  l-2.8,4.3h19.1c0.6,0,1,0.4,1,1S29,22.4,28.5,22.4L28.5,22.4z"/><polygon points="8.8,6.2 6.7,7.3 6.6,7.2 6.3,6.2 8.8,6.2 "/><path d="M6.3,6.2l0.4,1l-1.2-2C5.3,4.9,5,4.8,4.7,4.8H3.1C2.5,4.8,2,4.3,2,3.6s0.5-1.1,1.1-1.1H6c0.3,0,0.5,0.1,0.6,0.3L7.4,4  l1.3,2.2L6.3,6.2z"/><path d="M30,6.7l-3.6,10.4c-0.1,0.2-0.3,0.3-0.5,0.3H10.3l-0.1-0.2l-3.6-10l-0.4-1h2.5h20.7c0.3,0,0.5,0.2,0.5,0.4  C30,6.6,30,6.7,30,6.7z"/><text x="0" y="47" fill="#000000" font-size="5px" font-weight="bold" font-family="'Helvetica Neue', Helvetica, Arial-Unicode, Arial, Sans-serif">Created by pertiwi putri</text><text x="0" y="52" fill="#000000" font-size="5px" font-weight="bold" font-family="'Helvetica Neue', Helvetica, Arial-Unicode, Arial, Sans-serif">from the Noun Project</text></svg>